
                <!-- SVG Menu Generated By CIRCULUS.SVG :: http://sarasoueidan.com/tools/circulus -->
                <svg style="transform-origin: 50% 50% 0px; transform: translate3d(0px, 0px, 0px); -moz-user-select: none;" xmlns="http://www.w3.org/2000/svg" xmlns:xlink="http://www.w3.org/1999/xlink" viewBox="-2 -2 504 504" id="menu">
                    <style>
                        #menu {
                            display: block;
                            margin: 0 auto;
                            /*overflow: visible;*/ /* uncomment this if you are using bouncing animations*/
                        }

                        a { 
                            cursor: pointer; /* SVG &lt;a&gt; elements don't get this by default, so you need to explicitly set it */
                            outline: none;
                        }
                        
                        /* You can change these default styles any way you want */

                        .item .sector {
                            transition: all .1s linear;
                            fill: #fff;
                            stroke: #111;
                        }
                        
                        
                        .item:hover .sector, .item:focus .sector {
                            fill: #eee;
                        }

                        .menu-trigger {
                            fill: #EA2A55;
                            pointer-events: auto; /* KEEP THIS to make sure it stays clickable even when SVG's pointer events is disabled */
                        }

                        .menu-trigger:hover, .menu-trigger:focus {
                            cursor: pointer;
                        }
                        symbol {
                            overflow: visible; /* KEEP THIS so that text will not get cut off it it is wider than the icon width */
                        }
                    </style>
                    <g id="symbolsContainer">    <symbol viewBox="0 0 89 89" id="icon-1" class="icon icon-"><!--Replace the contents of this symbol with the content of your icon--><rect height="100%" width="100%" stroke-width="1" stroke="#111" fill="none"></rect><text font-size="1.2em" text-anchor="middle" dy=".3em" y="50%" x="50%" fill="#222">1</text></symbol>

    <symbol viewBox="0 0 89 89" id="icon-2" class="icon icon-"><!--Replace the contents of this symbol with the content of your icon--><rect height="100%" width="100%" stroke-width="1" stroke="#111" fill="none"></rect><text font-size="1.2em" text-anchor="middle" dy=".3em" y="50%" x="50%" fill="#222">2</text></symbol>

    <symbol viewBox="0 0 89 89" id="icon-3" class="icon icon-"><!--Replace the contents of this symbol with the content of your icon--><rect height="100%" width="100%" stroke-width="1" stroke="#111" fill="none"></rect><text font-size="1.2em" text-anchor="middle" dy=".3em" y="50%" x="50%" fill="#222">3</text></symbol>

    <symbol viewBox="0 0 89 89" id="icon-4" class="icon icon-"><!--Replace the contents of this symbol with the content of your icon--><rect height="100%" width="100%" stroke-width="1" stroke="#111" fill="none"></rect><text font-size="1.2em" text-anchor="middle" dy=".3em" y="50%" x="50%" fill="#222">4</text></symbol>

    <symbol viewBox="0 0 89 89" id="icon-5" class="icon icon-"><!--Replace the contents of this symbol with the content of your icon--><rect height="100%" width="100%" stroke-width="1" stroke="#111" fill="none"></rect><text font-size="1.2em" text-anchor="middle" dy=".3em" y="50%" x="50%" fill="#222">5</text></symbol>

    <symbol viewBox="0 0 89 89" id="icon-6" class="icon icon-"><!--Replace the contents of this symbol with the content of your icon--><rect height="100%" width="100%" stroke-width="1" stroke="#111" fill="none"></rect><text font-size="1.2em" text-anchor="middle" dy=".3em" y="50%" x="50%" fill="#222">6</text></symbol>

    <symbol viewBox="0 0 89 89" id="icon-7" class="icon icon-"><!--Replace the contents of this symbol with the content of your icon--><rect height="100%" width="100%" stroke-width="1" stroke="#111" fill="none"></rect><text font-size="1.2em" text-anchor="middle" dy=".3em" y="50%" x="50%" fill="#222">7</text></symbol>

</g>
                    <g id="itemsContainer">        <a data-svg-origin="250 250" transform="matrix(1,0,0,1,0,0)" xlink:title=" " xlink:href=" " tabindex="0" role="link" id="item-1" class="item"><path class="sector" d="M425,250 l75,0 A250,250 0 0,0 429.58733752443186,76.07936234912842 l-53.87620125732951,52.17619129526145 A175,175 0 0,1 425,250" stroke="#111" fill="none"></path><use transform="rotate(67.95918367346938 446.50634765625 170.4434051513672)" y="125.94340515136719" x="402.00634765625" height="89" width="89" xlink:href="#icon-1"></use></a>
        <a data-svg-origin="250 250" transform="matrix(0.62348,-0.78183,0.78183,0.62348,-101.33032108169084,289.585420152324)" xlink:title=" " xlink:href=" " tabindex="0" role="link" id="item-2" class="item"><path class="sector" d="M425,250 l75,0 A250,250 0 0,0 429.58733752443186,76.07936234912842 l-53.87620125732951,52.17619129526145 A175,175 0 0,1 425,250" stroke="#111" fill="none"></path><use transform="rotate(67.95918367346938 446.50634765625 170.4434051513672)" y="125.94340515136719" x="402.00634765625" height="89" width="89" xlink:href="#icon-2"></use></a>
        <a data-svg-origin="250 250" transform="matrix(-0.22252,-0.97492,0.97492,-0.22252,61.89825544362267,549.3622115345345)" xlink:title=" " xlink:href=" " tabindex="0" role="link" id="item-3" class="item"><path class="sector" d="M425,250 l75,0 A250,250 0 0,0 429.58733752443186,76.07936234912842 l-53.87620125732951,52.17619129526145 A175,175 0 0,1 425,250" stroke="#111" fill="none"></path><use transform="rotate(67.95918367346938 446.50634765625 170.4434051513672)" y="125.94340515136719" x="402.00634765625" height="89" width="89" xlink:href="#icon-3"></use></a>
        <a data-svg-origin="250 250" transform="matrix(-0.90096,-0.43388,0.43388,-0.90096,366.7712821962152,583.7131517549943)" xlink:title=" " xlink:href=" " tabindex="0" role="link" id="item-4" class="item"><path class="sector" d="M425,250 l75,0 A250,250 0 0,0 429.58733752443186,76.07936234912842 l-53.87620125732951,52.17619129526145 A175,175 0 0,1 425,250" stroke="#111" fill="none"></path><use transform="rotate(67.95918367346938 446.50634765625 170.4434051513672)" y="125.94340515136719" x="402.00634765625" height="89" width="89" xlink:href="#icon-4"></use></a>
        <a data-svg-origin="250 250" transform="matrix(-0.90096,0.43388,-0.43388,-0.90096,583.7131517549942,366.7712821962153)" xlink:title=" " xlink:href=" " tabindex="0" role="link" id="item-5" class="item"><path class="sector" d="M425,250 l75,0 A250,250 0 0,0 429.58733752443186,76.07936234912842 l-53.87620125732951,52.17619129526145 A175,175 0 0,1 425,250" stroke="#111" fill="none"></path><use transform="rotate(67.95918367346938 446.50634765625 170.4434051513672)" y="125.94340515136719" x="402.00634765625" height="89" width="89" xlink:href="#icon-5"></use></a>
        <a data-svg-origin="250 250" transform="matrix(-0.22252,0.97492,-0.97492,-0.22252,549.3622115345344,61.898255443622475)" xlink:title=" " xlink:href=" " tabindex="0" role="link" id="item-6" class="item"><path class="sector" d="M425,250 l75,0 A250,250 0 0,0 429.58733752443186,76.07936234912842 l-53.87620125732951,52.17619129526145 A175,175 0 0,1 425,250" stroke="#111" fill="none"></path><use transform="rotate(67.95918367346938 446.50634765625 170.4434051513672)" y="125.94340515136719" x="402.00634765625" height="89" width="89" xlink:href="#icon-6"></use></a>
        <a data-svg-origin="250 250" transform="matrix(0.62348,0.78183,-0.78183,0.62348,289.5854201523241,-101.33032108169084)" xlink:title=" " xlink:href=" " tabindex="0" role="link" id="item-7" class="item"><path class="sector" d="M425,250 l75,0 A250,250 0 0,0 429.58733752443186,76.07936234912842 l-53.87620125732951,52.17619129526145 A175,175 0 0,1 425,250" stroke="#111" fill="none"></path><use transform="rotate(67.95918367346938 446.50634765625 170.4434051513672)" y="125.94340515136719" x="402.00634765625" height="89" width="89" xlink:href="#icon-7"></use></a>
</g>
                    <g id="trigger" class="trigger menu-trigger" role="button">
                        <circle cx="250" cy="250" r="80"></circle>
                        <!-- menu button label or icon goes here -->
                    </g>
                </svg>
            